<?xml version="1.0" encoding="UTF-8"?>
<svg width="55" height="38" viewBox="0 0 55 38" fill="none" xmlns="http://www.w3.org/2000/svg">
  <path d="M53.3661 11.8305V3.43493C53.3661 3.1073 53.1169 3.02539 52.9924 3.02539H39.0382C37.4186 3.02539 34.4284 2.69499 31.3967 4.41783C26.4962 7.20269 25.7486 12.281 27.1606 17.1135C28.5727 21.9461 33.93 23.5842 35.1344 23.9119C36.3388 24.2395 44.2295 25.1814 44.894 25.4681C45.171 25.5876 45.8076 25.7548 45.8076 26.9834C45.8076 27.9663 44.7556 28.4578 44.2295 28.5806H27.1606C26.6955 28.5806 26.5792 28.9082 26.5792 29.0721V37.3857C26.5792 37.8771 26.8284 37.9727 26.953 37.959C32.0473 37.9727 42.6597 37.9918 44.3541 37.959C46.4721 37.9181 48.5071 37.14 50.0852 36.1571C55.8662 32.0289 55.3734 25.9732 54.4044 23.4614C52.2448 17.8507 47.9257 16.8268 46.6798 16.4992C45.6831 16.2371 39.8135 15.4071 37.0033 15.0249C36.5603 14.943 35.6743 14.5498 35.6743 13.6324C35.6743 12.7151 36.6157 12.3492 37.0863 12.281H52.7847C53.2498 12.281 53.3661 11.9806 53.3661 11.8305Z" fill="white"/>
  <path d="M8.18155 12.6496C8.18155 12.3874 8.17935 12.094 8.18155 11.9844C8.26024 8.06167 8.18155 4.40507 8.18155 3.02539H24.7521C25.0511 3.02539 25.1535 3.27111 25.1674 3.39398V11.8305C25.1674 12.1581 25.0012 12.24 24.9182 12.24H17.2766C17.0441 12.24 17.0136 12.3492 17.0275 12.4038V37.7133C17.0275 37.8771 16.9167 37.9727 16.8613 38H16.1138C15.9809 38 15.8646 37.8908 15.8231 37.8362C13.4282 35.4472 8.58854 30.6119 8.3892 30.3826C8.18985 30.1532 8.1677 30.0413 8.18155 30.014V12.6496Z" fill="white"/>
  <path d="M4.76837e-07 -3.49691e-07L8 8L-2.22545e-07 16L4.76837e-07 -3.49691e-07Z" fill="white"/>
</svg> 